<svg width="20" height="20" viewBox="0 0 20 20" fill="none" xmlns="http://www.w3.org/2000/svg">
<path d="M11.3499 6.98501L12.9882 5.34584C12.7944 5.15207 12.6513 4.91349 12.5717 4.65123C12.4921 4.38897 12.4784 4.11113 12.5319 3.84231C12.5853 3.57349 12.7042 3.32199 12.878 3.11009C13.0518 2.89819 13.2752 2.73244 13.5284 2.6275C13.7816 2.52256 14.0568 2.48168 14.3295 2.50848C14.6023 2.53528 14.8642 2.62893 15.0922 2.78114C15.3201 2.93335 15.5069 3.13942 15.6362 3.3811C15.7655 3.62278 15.8331 3.8926 15.8332 4.16668C16.1074 4.16648 16.3773 4.23391 16.6192 4.363C16.861 4.49209 17.0673 4.67884 17.2197 4.9067C17.3722 5.13457 17.466 5.39652 17.493 5.66934C17.52 5.94215 17.4792 6.21741 17.3744 6.47072C17.2695 6.72402 17.1038 6.94756 16.892 7.12151C16.6801 7.29546 16.4285 7.41446 16.1597 7.46797C15.8908 7.52147 15.6129 7.50782 15.3505 7.42822C15.0882 7.34863 14.8495 7.20556 14.6557 7.01168L13.1391 8.52918M6.24989 13.3333L7.08322 14.1667M4.91989 15.4967C7.19739 17.775 9.83655 18.83 10.8116 17.8542C11.7882 16.8775 10.7332 14.2392 8.45489 11.9617C6.17739 9.68334 3.53822 8.62834 2.56322 9.60418C1.58655 10.5808 2.64155 13.2192 4.91989 15.4967Z" stroke="#424F66" stroke-width="2" stroke-linecap="round" stroke-linejoin="round"/>
<path d="M10.8124 17.8541C14.0666 14.5991 14.8582 10.1141 12.5799 7.83664C10.3024 5.55831 5.8174 6.34997 2.56323 9.60414" stroke="#424F66" stroke-width="2" stroke-linecap="round" stroke-linejoin="round"/>
</svg>
