<svg width="20" height="20" viewBox="0 0 20 20" fill="none" xmlns="http://www.w3.org/2000/svg">
<path d="M17.5 5.83333V17.5H2.5V2.5H14.1667L17.5 5.83333ZM15.8333 6.54167L13.4583 4.16667H4.16667V15.8333H15.8333V6.54167ZM10 15C10.6944 15 11.2847 14.7569 11.7708 14.2708C12.2569 13.7847 12.5 13.1944 12.5 12.5C12.5 11.8056 12.2569 11.2153 11.7708 10.7292C11.2847 10.2431 10.6944 10 10 10C9.30556 10 8.71528 10.2431 8.22917 10.7292C7.74306 11.2153 7.5 11.8056 7.5 12.5C7.5 13.1944 7.74306 13.7847 8.22917 14.2708C8.71528 14.7569 9.30556 15 10 15ZM5 8.33333H12.5V5H5V8.33333ZM4.16667 6.54167V15.8333V4.16667V6.54167Z" fill="#182657"/>
</svg>
