<?xml version="1.0" encoding="UTF-8"?>
<svg xmlns="http://www.w3.org/2000/svg" xmlns:xlink="http://www.w3.org/1999/xlink" viewBox="0 0 356.92 264.99">
  <defs>
    <style>
      .cls-1 {
        isolation: isolate;
      }

      .cls-2 {
        stroke-width: 0px;
      }

      .cls-2, .cls-3 {
        fill: none;
      }

      .cls-4 {
        clip-path: url(#clippath);
      }

      .cls-3 {
        stroke: #1d1d1b;
        stroke-miterlimit: 10;
        stroke-width: 1.75px;
      }
    </style>
    <clipPath id="clippath">
      <rect class="cls-2" width="356.92" height="264.99"/>
    </clipPath>
    <clipPath id="clippath-1">
      <rect class="cls-2" x="664.63" y="-78.02" width="230.92" height="343.01"/>
    </clipPath>
    <clipPath id="clippath-2">
      <path class="cls-2" d="M703.67-78.02c-17.22,0-31.18,13.96-31.18,31.18v311.83h192.04c17.22,0,31.18-13.96,31.18-31.18V-78.02h-192.04Z"/>
    </clipPath>
  </defs>
  <g class="cls-1">
    <g id="Camada_1" data-name="Camada 1">
      <g class="cls-4">
        <path class="cls-3" d="M151.44,255.33c0,1.04.84,1.88,1.88,1.88s1.88-.84,1.88-1.88-.84-1.88-1.88-1.88-1.88.84-1.88,1.88ZM130.18,255.33c0,1.04.84,1.88,1.88,1.88s1.88-.84,1.88-1.88-.84-1.88-1.88-1.88-1.88.84-1.88,1.88ZM23.89,255.33c0,1.04.84,1.88,1.88,1.88s1.88-.84,1.88-1.88-.84-1.88-1.88-1.88-1.88.84-1.88,1.88ZM2.64,255.33c0,1.04.84,1.88,1.88,1.88s1.88-.84,1.88-1.88-.84-1.88-1.88-1.88-1.88.84-1.88,1.88ZM45.15,255.33c0,1.04.84,1.88,1.88,1.88s1.88-.84,1.88-1.88-.84-1.88-1.88-1.88-1.88.84-1.88,1.88ZM108.92,255.33c0,1.04.84,1.88,1.88,1.88s1.88-.84,1.88-1.88-.84-1.88-1.88-1.88-1.88.84-1.88,1.88ZM87.66,255.33c0,1.04.84,1.88,1.88,1.88s1.88-.84,1.88-1.88-.84-1.88-1.88-1.88-1.88.84-1.88,1.88ZM66.41,255.33c0,1.04.84,1.88,1.88,1.88s1.88-.84,1.88-1.88-.84-1.88-1.88-1.88-1.88.84-1.88,1.88ZM278.98,255.33c0,1.04.84,1.88,1.88,1.88s1.88-.84,1.88-1.88-.84-1.88-1.88-1.88-1.88.84-1.88,1.88ZM257.72,255.33c0,1.04.84,1.88,1.88,1.88s1.88-.84,1.88-1.88-.84-1.88-1.88-1.88-1.88.84-1.88,1.88ZM236.46,255.33c0,1.04.84,1.88,1.88,1.88s1.88-.84,1.88-1.88-.84-1.88-1.88-1.88-1.88.84-1.88,1.88ZM215.21,255.33c0,1.04.84,1.88,1.88,1.88s1.88-.84,1.88-1.88-.84-1.88-1.88-1.88-1.88.84-1.88,1.88ZM193.95,255.33c0,1.04.84,1.88,1.88,1.88s1.88-.84,1.88-1.88-.84-1.88-1.88-1.88-1.88.84-1.88,1.88ZM172.69,255.33c0,1.04.84,1.88,1.88,1.88s1.88-.84,1.88-1.88-.84-1.88-1.88-1.88-1.88.84-1.88,1.88ZM311.78,255.83s-12.56-6.77-12.56-21.94M343.9,211.05s11.65,7.68,11.65,22.84-11.65,21.94-11.65,21.94M324.52,233.1c0,1.58,1.28,2.85,2.85,2.85s2.85-1.28,2.85-2.85-1.28-2.85-2.85-2.85-2.85,1.28-2.85,2.85ZM313.96,233.1c0,7.41,6.01,13.42,13.42,13.42s13.42-6.01,13.42-13.42-6.01-13.42-13.42-13.42-13.42,6.01-13.42,13.42ZM306.23,233.1c0,11.68,9.47,21.15,21.15,21.15s21.15-9.47,21.15-21.15-9.47-21.14-21.15-21.14-21.15,9.47-21.15,21.14ZM0,245.84h288.61l10.61,10.15M355.55,263.62H0M335.05,23.93c0,1.12.87,2.03,1.94,2.03s1.94-.91,1.94-2.03-.87-2.03-1.94-2.03-1.94.91-1.94,2.03ZM348.49,45.62c0,1.12.87,2.03,1.94,2.03s1.94-.91,1.94-2.03-.87-2.03-1.94-2.03-1.94.91-1.94,2.03ZM335.05,69.5c0,1.12.87,2.03,1.94,2.03s1.94-.91,1.94-2.03-.87-2.03-1.94-2.03-1.94.91-1.94,2.03ZM348.49,90.84c0,1.12.87,2.03,1.94,2.03s1.94-.91,1.94-2.03-.87-2.03-1.94-2.03-1.94.91-1.94,2.03ZM348.49,181.23c0,1.12.87,2.03,1.94,2.03s1.94-.91,1.94-2.03-.87-2.03-1.94-2.03-1.94.91-1.94,2.03ZM335.05,158.63c0,1.12.87,2.03,1.94,2.03s1.94-.91,1.94-2.03-.87-2.02-1.94-2.02-1.94.91-1.94,2.02ZM335.05,114.51c0,1.12.87,2.03,1.94,2.03s1.94-.91,1.94-2.03-.87-2.02-1.94-2.02-1.94.91-1.94,2.02ZM348.49,136.2c0,1.12.87,2.03,1.94,2.03s1.94-.91,1.94-2.03-.87-2.03-1.94-2.03-1.94.91-1.94,2.03ZM338,7.56c-3.21,0-5.82,7.33-5.82,16.37s2.61,16.37,5.82,16.37M338,52.35c-3.21,0-5.82,7.33-5.82,16.37s2.61,16.37,5.82,16.37M338,99.12c-3.21,0-5.82,7.33-5.82,16.37s2.61,16.37,5.82,16.37M338,142.27c-3.21,0-5.82,7.33-5.82,16.36s2.61,16.37,5.82,16.37M349.46,197.59c3.21,0,5.82-7.33,5.82-16.37s-2.61-16.37-5.82-16.37M349.46,152.11c3.21,0,5.82-7.33,5.82-16.37s-2.61-16.37-5.82-16.37M349.46,62.88c3.21,0,5.82-7.33,5.82-16.37s-2.61-16.37-5.82-16.37M349.46,105.25c3.21,0,5.82-7.33,5.82-16.37s-2.61-16.36-5.82-16.36M335.09.46l4.63,13.05c2.19,6.16,2.19,12.94,0,19.1l-1.24,3.5c-2.19,6.16-2.19,12.94,0,19.1l1.24,3.5c2.19,6.16,2.19,12.93,0,19.1l-1.24,3.5c-2.19,6.16-2.19,12.94,0,19.1l1.22,3.44c2.2,6.2,2.19,13.02-.04,19.21l-1.14,3.17c-2.21,6.15-2.24,12.93-.08,19.1l1.34,3.83c2.15,6.13,2.14,12.86-.04,18.99l-1.26,3.56c-2.19,6.16-2.19,12.93,0,19.1l4.63,13.05M344.47.46l4.63,13.05c2.19,6.16,2.19,12.94,0,19.1l-1.24,3.5c-2.19,6.16-2.19,12.94,0,19.1l1.24,3.5c2.19,6.16,2.19,12.93,0,19.1l-1.24,3.5c-2.19,6.16-2.19,12.94,0,19.1l1.22,3.44c2.2,6.2,2.19,13.02-.04,19.21l-1.14,3.17c-2.21,6.15-2.24,12.93-.08,19.1l1.34,3.83c2.15,6.13,2.14,12.86-.04,18.99l-1.27,3.56c-2.19,6.16-2.19,12.93,0,19.1l4.63,13.05"/>
      </g>
    </g>
  </g>
</svg>