<?xml version="1.0" encoding="UTF-8"?>
<svg id="Camada_1" data-name="Camada 1" xmlns="http://www.w3.org/2000/svg" viewBox="0 0 190.01 268.68">
  <defs>
    <style>
      .cls-1 {
        fill: #212b59;
        stroke-width: 0px;
      }
    </style>
  </defs>
  <polygon class="cls-1" points="3.37 62.94 0 63.13 4.22 73.47 3.53 130 .11 135.56 3.24 138.48 3.63 201 2.44 222.69 1.55 228.04 3.11 228.69 2.25 245.97 3.65 257.48 15.01 258.02 41.95 258.23 49.82 260.59 52.22 268.68 56.84 258.02 153.21 258.02 156.02 262.22 159.66 258.58 167.61 265.55 167.75 257.06 174.09 256.14 181.71 258.16 180.03 247.26 181.37 176.33 184.35 173.39 181.57 168.6 181.57 146.82 183.86 146.06 181.21 133.89 181.21 132.88 184.13 128.69 181.21 125.27 181.21 84.03 186.7 81.29 181.2 76.17 181.2 64.45 186.61 70.28 183.16 51.68 185.69 41.82 178.91 50.37 180.16 57.13 178 54.8 177.2 56.54 177.2 77.58 179.75 79.96 177.21 81.23 177.21 127.97 178.86 128.94 177.21 130.22 177.21 133.99 179.18 143.07 177.57 143.61 177.57 169.77 179.75 172.28 177.41 173.8 176.01 247.5 177.21 252.19 175.01 251.63 163.81 253.26 163.75 256.52 160.33 253.53 158.56 253.69 156.64 255.61 155.35 253.69 54.22 253.69 52.92 256.67 52.02 253.61 48.61 253.61 48.26 255.61 42.55 253.9 15.04 253.69 7.21 253.31 6.26 245.5 7.23 225.95 5.49 228.36 6.42 222.8 7.63 200.77 7.23 136.39 5.23 134.54 7.52 130.82 8.23 72.17 5.31 66.61 7.74 66.61 5.38 39.84 2.99 46.56 3.37 62.94"/>
  <polygon class="cls-1" points="177.11 49.12 184.65 39.41 183.17 34.79 182.36 31.39 182.36 15.29 190.01 0 175.6 9.35 172.31 7.78 129.9 7.78 126.34 6.35 125.91 6.97 124.67 3.8 118.85 7.99 108.64 7.99 105.69 4.46 102.75 7.99 70.57 7.99 74.08 2.42 56.54 8.53 31.37 8.53 28.07 .02 24.4 8.59 12.96 9.14 2.57 5.49 3.88 10.35 2.35 10.29 3.09 33.48 2.99 43.51 7.12 34.59 6.48 14.46 9.16 14.56 8.41 11.78 12.37 13.17 25.75 12.53 26.6 13.6 27.89 10.6 28.64 12.53 57.21 12.53 64.6 9.96 63.31 11.99 104.62 11.99 105.69 10.71 106.76 11.99 120.14 11.99 122.82 10.07 123.57 11.99 126.56 11.99 124.85 10.07 129.13 11.78 171.41 11.78 175.9 13.92 179.86 11.35 178.36 14.35 178.36 31.86 180.08 39.03 178.47 40.91 177.11 49.12"/>
</svg>