<?xml version="1.0" encoding="UTF-8"?>
<svg id="Camada_1" data-name="Camada 1" xmlns="http://www.w3.org/2000/svg" viewBox="0 0 353.96 96.93">
  <defs>
    <style>
      .cls-1 {
        fill: #c9d1db;
        stroke-width: 0px;
      }
    </style>
  </defs>
  <polygon class="cls-1" points="227.34 2.2 232.8 .21 351.78 3.61 350.65 12.63 353.96 20.46 348.81 83.58 351.8 93.45 219.87 94.16 214.41 92.17 207.93 94.12 170.1 93.68 164.31 90.9 163.82 90.9 158.31 93.65 112.55 93.53 105.96 92.16 101.55 93.53 60.19 93.87 52.93 91.41 48.06 95.23 38.47 96.93 38.38 96.83 31.99 94.78 26.53 96.89 1.03 95.8 4.36 73.69 0 15.31 2.09 .8 6.65 0 12.1 2.12 17.5 .04 17.5 .04 17.5 .04 64.3 .9 68.71 2.27 75.3 .9 114.83 .78 120.58 3.66 126.62 .75 176.26 .68 203.46 2.9 212.59 .58 220.87 .25 227.34 2.2"/>
</svg>