<?xml version="1.0" encoding="UTF-8"?>
<svg id="Camada_1" data-name="Camada 1" xmlns="http://www.w3.org/2000/svg" viewBox="0 0 168.16 361.3">
  <defs>
    <style>
      .cls-1 {
        fill: #c9d1db;
        stroke-width: 0px;
      }
    </style>
  </defs>
  <polygon class="cls-1" points="161.57 292.4 163.99 299.25 164.62 352.53 147.95 356.93 119.71 361.3 33.89 361.3 1.84 354.83 3.38 283.86 5.81 277.01 3.42 268.9 3.96 221.48 5.02 212.83 5.02 212.2 4 206.71 4.15 149.35 5.82 141.09 4.15 135.56 3.74 83.73 4.39 73.23 2.07 68.53 0 56.5 .12 56.39 2.63 48.39 .05 41.54 2.3 3.1 65.3 0 145.51 1.96 164.27 5.42 164.25 15.8 161.67 22.64 164.21 29.4 164.21 29.4 164.21 29.41 163.15 88.05 161.48 93.58 163.15 101.84 168.12 152.73 164.62 159.93 168.16 167.5 166.25 226.21 163.54 260.31 163.54 273.92 163.95 284.29 161.57 292.4"/>
  <polygon class="cls-1" points="-188.27 192.4 -187.16 248.02 -179.91 247.48 -177.49 245.57 -172.88 247.48 -146.61 247.89 -141.1 246.48 -137.81 247.89 -123.93 246.48 -84.05 247.78 -82.16 246.65 -80.23 248.02 -.88 248.02 1.65 241.05 -.4 205.97 -2.64 201.69 -.4 196.51 -.36 191.85 -188.27 192.4"/>
</svg>