<?xml version="1.0" encoding="UTF-8"?>
<svg id="Camada_1" data-name="Camada 1" xmlns="http://www.w3.org/2000/svg" viewBox="0 0 182.77 195.15">
  <defs>
    <style>
      .cls-1 {
        fill: #c9d1db;
        stroke-width: 0px;
      }
    </style>
  </defs>
  <polygon class="cls-1" points="179.5 188.09 182.1 192.28 174.48 193.24 163.42 192.82 151.87 195.15 71.33 189.32 6.38 192.81 3.19 184.26 5.74 180.29 3.23 175.59 4.16 160.47 7.73 156.27 7.73 155.9 4.2 151.9 4.36 118.65 6.11 113.86 4.36 110.66 0 80.27 3.15 74.99 2.18 71.8 0 64.83 .13 64.76 2.76 60.12 .05 56.15 0 .25 83.38 3.17 158.19 0 182.77 1.6 182.75 40.32 177.08 42.85 182.7 48.21 182.7 48.21 182.7 48.21 181.59 82.21 176.66 87.11 181.59 90.21 181.74 118.93 178.32 124.66 181.78 127.5 181.87 163.56 179.5 169.65 181.63 177.59 182.06 183.61 179.5 188.09"/>
</svg>