<?xml version="1.0" encoding="UTF-8"?>
<svg id="Camada_1" data-name="Camada 1" xmlns="http://www.w3.org/2000/svg" viewBox="0 0 1080 1080">
  <defs>
    <style>
      .cls-1 {
        fill: #212b59;
      }
    </style>
  </defs>
  <path class="cls-1" d="M746.58,40l292.67,292.67v413.9l-292.67,292.67h-413.9L40,746.58v-413.9L332.67,40h413.9M763.15,0h-447.04L0,316.11v447.04l316.11,316.1h447.04l316.1-316.1v-447.04L763.15,0h0Z"/>
  <path class="cls-1" d="M757.06,1.59h-446.28L-4.78,317.16v446.28l315.56,315.57h446.28l315.56-315.57v-446.28L757.06,1.59ZM986.46,598.38l6.86,146.81-137.13,164.56-143.99,41.95-27.43,53.24-130.28-12.91-143.99-41.95-102.57,69.37v-118.58l-89.42-87.93-109.71-27.43,27.43-137.13-75.42-122.61,82.28-191.99-61.71,12.91,82.28-54.85-27.43-54.85,89.14-12.91,82.28-82.28,109.71-27.43h137.13l157.7-41.95,26.06,66.15h71.55l94.38,153.27h55.66l26.62,27.43-19.36,102.02,19.36,177.09Z"/>
  <g>
    <path class="cls-1" d="M528.05,510.8c0,72.92-60.56,132.25-134.72,132.25h-106.91c-3.09,0-5.56,2.47-5.56,5.56v90.23c0,3.09-2.47,5.56-5.56,5.56h-56.24c-3.09,0-5.56-2.47-5.56-5.56v-292.31c0-3.09-2.47-5.56-5.56-5.56h-27.81c-3.09,0-5.56-2.47-5.56-5.56v-56.24c0-3.09,2.47-5.56,5.56-5.56h211.97c75.4,0,135.96,61.18,135.96,137.2ZM460.69,508.33c0-37.08-29.66-67.36-67.36-67.36h-106.91c-3.09,0-5.56,2.47-5.56,5.56v123.6c0,3.09,2.47,5.56,5.56,5.56h106.91c37.08,0,67.36-30.28,67.36-67.36Z"/>
    <path class="cls-1" d="M565.13,557.15c0-115.56,93.94-189.72,192.2-189.72,48.82,0,98.26,17.92,138.43,58.09l8.03,8.03c2.47,1.85,2.47,5.56,0,7.42l-41.41,39.55c-1.85,1.85-5.56,1.85-7.42,0l-7.42-8.65c-25.96-26.57-58.09-38.93-90.23-38.32-63.04.62-124.22,48.82-124.22,123.6s61.18,123.6,124.22,124.22c32.14.62,64.27-11.74,90.23-38.32l7.42-8.04c1.85-2.47,5.56-2.47,7.42,0l41.41,38.32c2.47,1.85,2.47,5.56,0,8.65l-8.03,8.03c-39.55,41.41-89.61,60.56-138.43,59.95-98.26,0-192.2-76.63-192.2-192.81Z"/>
  </g>
</svg>