<?xml version="1.0" encoding="UTF-8"?>
<svg id="Camada_1" data-name="Camada 1" xmlns="http://www.w3.org/2000/svg" viewBox="0 0 74.3 61.48">
  <defs>
    <style>
      .cls-1 {
        fill: #FFFFFF;
        stroke-width: 0px;
      }
    </style>
  </defs>
  <polyline class="cls-1" points="61.32 35.16 49.21 58.68 71.54 35.55 49.27 1.46"/>
  <polygon class="cls-1" points="8.34 38.55 10.33 35.86 11.89 35.86 13.5 37.21 13.02 39.49 10.92 41.33 9.04 40.89 8.34 39.71 8.34 38.55"/>
  <polygon class="cls-1" points="16.41 36.44 11.85 42.64 11.85 44.19 13.5 45.33 14.81 45.33 17 42.18 19.1 39.25 19.33 37.97 18.63 36.8 17.56 36.44 16.41 36.44"/>
  <polygon class="cls-1" points="20.04 40.54 15.94 46.04 17.35 48.38 19.33 48.14 22.73 43.23 22.73 41.56 21.44 40.54 20.04 40.54"/>
  <path class="cls-1" d="M23.71,44.46l-2.86,3.57v1.66l2.22,1.26,1.17-.58s2.22-3.04,2.22-3.28-.55-1.76-.55-1.76l-1.13-.87h-1.08Z"/>
  <path class="cls-1" d="M11.15,16.91L2.49,27.9l5.85,7.69,2.58-1.13,2.1.47,1.17,1.52h.47l2.34-1.4,1.99.35,1.64,1.87v1.97l1.75.37,1.99,2.22-.35,1.29,2.46.78.83,1.43.58,1.65-.88,1.4-.53.89,3.51.63,2.92.35,2.34-1.4-1.17-.94-1.99-.7s-1.99-1.05-2.11-1.17-.99-1.13-.99-1.13l.99-.86,3.16,1.87,3.18,1.78,2.32-.5.97-1.88-7.47-4.44-.05-1.17h.82l7.49,4.45,1.87-.35,1.17-1.17v-1.32l-9.03-5.47.06-.99h.54l10.21,5.67,1.49-.35.94-1.87-1.52-2.11-15.56-10.41-2.57-1.17-2.69,1.05-1.05,1.29-1.75,1.52-2.22,1.29h-2.57l-1.52-1.29.7-3.04,3.04-4.09-3.63-.58-5.15-3.86Z"/>
  <polygon class="cls-1" points="23.27 19.48 17.93 26.62 17.93 28.36 20.22 28.36 24.01 25.92 24.88 23.93 28.99 23.26 47.28 35.86 55.48 30.36 47.64 18.9 39.81 20.18 33.84 18.55 28.28 18.55 23.27 19.48"/>
</svg>