<svg width="250" height="60" viewBox="0 0 250 60" fill="none" xmlns="http://www.w3.org/2000/svg">
<path fill-rule="evenodd" clip-rule="evenodd" d="M0.758301 1.93549L0.845897 60L11.4509 59.6202L13.7868 57.3535L15.673 59.6202H39.1255L42.5417 49.8182L44.7901 58.2969L47.1259 57.5373L48.9246 58.8605L93.1315 57.9171L95.1988 56.5938L98.253 57.9171L116.672 58.1009L119.37 55.2705L122.155 58.1009H145.245L157.912 56.0302L162.134 58.2969L183.07 58.4807L186.392 56.214L190.708 58.4807H204.817L206.166 56.9736L208.502 58.4807H219.825L222.879 56.5938L225.396 58.4807H229.262L230.249 40.9474L228.182 30.0182L232.585 3.06271H217.758L215.241 4.9496L212.187 3.06271L204.461 3.2465L200.145 5.51321L196.822 3.2465L179.303 3.43029L175.081 5.697L162.414 3.62633H140.761L138.063 6.26061H137.794L135.189 3.62633L113.892 3.81012L110.838 5.13338L108.77 3.81012H77.2299L75.4312 5.13338L73.1829 3.62633L71.9274 6.07683H69.7725L67.5242 2.30306H26.3656L24.4794 4.56977L22.1435 2.30306L0.758301 1.92323L0.758301 1.93549ZM230.874 60L232.672 57.1697L231.954 42.2707L230.874 59.9877V60ZM231.505 26.4405L241.029 4.38598H234.652L231.505 26.4405ZM231.773 32.4809L235.189 43.4101L249.748 19.4688L238.337 22.6789L231.779 32.4809H231.773Z" fill="#424F66"/>
</svg>
