<svg width="170" height="165" viewBox="0 0 170 165" fill="none" xmlns="http://www.w3.org/2000/svg">
<g clip-path="url(#clip0_14_8)">
<path d="M-8.55957 50.6881L1.1191 25.1434L2.69726 20.9716L4.30093 38.5964L2.6491 38.5936L4.63243 42.2566L4.15076 80.8611L2.60093 83.3031L3.95526 84.5269L4.2301 126.902L3.4056 141.4L2.7766 145.065L3.95526 143.476L3.30076 156.343L3.9411 161.486L9.2536 161.73L27.9083 161.873L31.7786 163.001L32.0194 161.684H59.7266L60.3386 163.691L61.2141 161.73H102.422L103.292 163.001L104.598 161.73L153.975 161.626L156.298 163.598L156.335 161.45L163.928 160.38L165.892 161.615L164.614 157.663L165.56 109.15L167.15 108.149L165.665 106.497V89.2734L166.761 88.9214L165.421 82.9429V80.4624L167.22 79.4751L165.421 78.9829V48.2186L167.15 47.3826L165.416 45.8124V31.9689L165.96 30.8249L167.424 32.3566L166.574 27.9044L177.967 13.5576V174.204L-8.55957 173.643V50.6881Z" fill="#C9D1DB"/>
<path d="M-8.55957 38.3734V-9.20435H177.967V10.0127L165.356 27.0847L166.277 21.6782L167.365 20.4434L166.203 15.7217V4.19641L167.22 2.22191L164.534 3.91315L161.486 2.5024H144.276L141.372 1.3749L142.534 2.64266H129.041L128.534 1.3749L126.721 2.64266H104.59C104.519 2.64266 104.451 2.6124 104.408 2.56015L103.935 2.01016C103.839 1.90016 103.666 1.90016 103.57 2.01016L103.099 2.56015C103.054 2.6124 102.986 2.64266 102.918 2.64266H70.6519L71.5218 1.3034L66.5124 2.99465H33.0961L32.5889 1.7269L31.7191 3.7014L31.1383 2.99741L7.43743 3.4209L4.75143 2.50515L5.26143 4.33941L3.4481 4.26791L3.88443 17.5202L-8.55674 38.3762L-8.55957 38.3734Z" fill="#C9D1DB"/>
</g>
<defs>
<clipPath id="clip0_14_8">
<rect width="170" height="165" fill="white"/>
</clipPath>
</defs>
</svg>
