<?xml version="1.0" encoding="UTF-8"?>
<svg id="Camada_1" data-name="Camada 1" xmlns="http://www.w3.org/2000/svg" viewBox="0 0 426.36 47.39">
  <defs>
    <style>
      .cls-1 {
        fill: #75070322;
        fill="currentColor"
        fill-rule: evenodd;
        stroke-width: 0px;
      }
    </style>
  </defs>
  <path class="cls-1" d="M0,51.3L.15,3.91l18.16.31,4,1.85,3.23-1.85h40.16l5.85,8,3.85-6.92,4,.62,3.08-1.08,75.7.77,3.54,1.08,5.23-1.08,31.54-.15,4.62,2.31,4.77-2.31h39.54l21.69,1.69,7.23-1.85,35.85-.15,5.69,1.85,7.39-1.85h24.16l2.31,1.23,4-1.23h19.39l5.23,1.54,4.31-1.54h6.62l1.69,14.31-3.54,8.92,7.54,22h-25.39l-4.31-1.54-5.23,1.54-13.23-.15-7.39-1.85-5.69,1.85-30-.15-7.23-1.85-21.69,1.69h-37.08l-4.62-2.15h-.46l-4.46,2.15-36.47-.15-5.23-1.08-3.54,1.08h-54.01l-3.08-1.08-3.85,1.23-2.15-2h-3.69l-3.85,3.08H43.85l-3.23-1.85-4,1.85-36.62.31ZM394.05,3.91l3.08,2.31-1.23,12.16-1.85-14.46ZM395.13,31.3l16.31,18h-10.92l-5.39-18ZM395.59,26.37l5.85-8.92,24.93,19.54-19.54-2.62-11.23-8Z"/>
</svg>