<?xml version="1.0" encoding="UTF-8"?>
<svg id="Camada_3" data-name="Camada 3" xmlns="http://www.w3.org/2000/svg" width="1644" height="877" viewBox="0 0 1644.99 877.1">
  <defs>
    <style>
      .cls-1 {
        fill: #010101;
      }

      .cls-1, .cls-2 {
        stroke-width: 0px;
      }

      .cls-2 {
        fill: #fff;
      }
    </style>
  </defs>
  <path class="cls-1" d="M376.82,661.43l29.63-26.09,79.36,28.4,31.61,53.9-99.65.6-40.95-56.81ZM1053.66,801.8l25.77-41.85-89.53.8-37.09,40.39,53.28,24.44,47.56-23.78ZM936.3,816.33l-45.58,47.56,55.05,13.21,44.04-34.79-53.5-25.98ZM1611.67,471.7h-11.43l44.75-63.59-194.52-183.9h-233.42l-98.67-69.76-145.51-1.97-95.12-65.39-106.26,182.25-35.72.17h-6.62c-.47,0-.94.01-1.41.04h-1.1s130.03-229.9,130.03-229.9L801.19,0l-167.45,131.14h-133.57l-98.67,69.76h-209.42l-147.22,81.81v.41c-.6.36-1.22.7-1.8,1.06-17.95,11.25-39.35,33.55-39.35,75.86,0,16.6,3.79,31.47,11.27,44.2,5.96,10.15,14.31,18.98,24.85,26.28h-13.12c-14.73,0-26.71,11.98-26.71,26.71v7.82c0,17.68,3.31,33.49,9.85,46.98,6.5,13.42,16.15,24.6,28.69,33.23,17.16,11.8,39.94,18.76,67.86,20.8l.3.63,245.31,85.16,53.41-41.29,101.16,39.3,47.89,79.6,195.28,76.76-25.62-70.38.25-.09-.25-.09,18.49-50.79h40.83l-18.57,50.9,38.99,107.11,43.43,29.42,132.03-132.03.06.06v-.06h126.68l113.37-45.81,165.67-131.8,58.6-.08h167.97c14.73,0,26.71-11.98,26.71-26.71v-37.48c0-14.73-11.98-26.71-26.71-26.71ZM1390.46,588.78l-82.11,74.74,107.01-7.93,39.63-66.82h-64.53Z"/>
  <path class="cls-2" d="M720.66,655.19v-62.49c0-.63-.51-1.14-1.14-1.14h-6.06c-.63,0-1.13-.63-1.13-1.26v-8.33c0-.76.5-1.26,1.13-1.26h42.67c13.51,0,24.74,10.98,24.74,24.62,0,11.87-8.46,21.71-19.31,24.11-.63.13-.88.88-.51,1.39l12.88,14.39c.12.25.5.38.88.38h6.06c.63,0,1.14.63,1.14,1.26v8.33c0,.76-.5,1.26-1.14,1.26h-10.98c-.25,0-.63-.13-.88-.38l-22.72-25.63c-.25-.25-.63-.51-1.01-.51h-12.5c-.76,0-1.26.63-1.26,1.26v23.98c0,.76-.51,1.26-1.14,1.26h-8.46c-.63,0-1.26-.5-1.26-1.26ZM756.13,619.22c7.57,0,13.89-6.19,13.89-13.89s-6.31-13.76-13.89-13.76h-23.35c-.76,0-1.26.5-1.26,1.14v25.25c0,.63.5,1.26,1.26,1.26h23.35ZM793.66,655.19v-62.49c0-.63-.5-1.14-1.26-1.14h-5.93c-.63,0-1.26-.63-1.26-1.26v-8.33c0-.76.63-1.26,1.26-1.26h43.68c15.02,0,27.27,12.37,27.27,27.52s-12.37,26.64-27.14,26.64h-24.62c-.63,0-1.13.5-1.13,1.14v19.19c0,.76-.63,1.26-1.26,1.26h-8.46c-.63,0-1.14-.5-1.14-1.26ZM830.27,624.01c8.96,0,16.28-7.32,16.28-16.28s-7.2-16.16-16.28-16.16h-24.62c-.63,0-1.13.5-1.13,1.14v30.04c0,.76.5,1.26,1.13,1.26h24.62ZM901.86,657.72c-21.71,0-39.13-17.67-39.13-39.13s17.8-39.13,39.13-39.13c10.73,0,20.96,4.29,28.4,12.12l.38.5c.51.5.51,1.26,0,1.64l-6.06,5.81c-.51.51-1.26.51-1.77,0l-.38-.38c-5.43-5.68-12.75-8.84-20.58-8.84-15.65,0-28.28,12.62-28.28,28.28s12.62,28.28,28.28,28.28c7.45,0,14.26-2.78,19.57-7.83.25-.13.38-.5.38-.76v-13.13c0-.63-.51-1.14-1.26-1.14h-15.65c-.63,0-1.14-.5-1.14-1.26v-8.33c0-.76.51-1.26,1.14-1.26h26.51c.63,0,1.26.5,1.26,1.26v40.9c0,.63-.63,1.14-1.26,1.14h-8.46c-.63,0-1.14-.5-1.14-1.14v-2.02c0-.38-.51-.76-.88-.5-5.81,3.28-12.24,4.92-19.06,4.92Z"/>
  <path class="cls-2" d="M370.82,410.71l82.04,82.04c.82.82,1.64,1.23,2.46,1.23h22.97c2.05,0,3.69,1.64,3.69,3.69v37.33c0,2.05-1.64,3.69-3.69,3.69h-41.43c-.82,0-2.05-.41-2.46-1.23l-95.17-95.17c-1.64-1.23-3.69-1.23-5.33,0l-18.46,18.87c-.82.82-1.23,1.64-1.23,2.46v71.38c0,2.05-1.64,3.69-3.69,3.69h-37.33c-2.46,0-3.69-1.64-3.69-3.69v-194.03c0-2.05-1.64-3.69-3.69-3.69h-18.87c-2.05,0-3.69-1.64-3.69-3.69v-37.33c0-2.05,1.64-3.69,3.69-3.69h63.58c2.05,0,3.69,1.64,3.69,3.69v98.04c0,2.05,1.64,2.87,3.28,1.64l101.73-102.14c.82-.82,2.05-1.23,2.87-1.23h57.43c1.23,0,2.05,2.05.82,3.28l-109.53,109.53c-1.64,1.64-1.64,4.1,0,5.33ZM1276.38,493.99h126.76c2.05,0,3.69,1.64,3.69,3.69v37.33c0,2.05-1.64,3.69-3.69,3.69h-171.47c-2.46,0-3.69-1.64-3.69-3.69v-194.03c0-2.05-1.64-3.69-3.69-3.69h-18.87c-2.05,0-3.69-1.64-3.69-3.69v-37.33c0-2.05,1.64-3.69,3.69-3.69h63.58c2.05,0,3.69,1.64,3.69,3.69v194.03c0,2.05,1.64,3.69,3.69,3.69ZM1445.2,396.8l44.71,25.82v32l-44.71-25.82v-32ZM1611.77,493.99h-126.76c-2.05,0-3.69-1.64-3.69-3.69v-20.36l-44.71-25.82v90.89c0,2.05,1.23,3.69,3.69,3.69h171.47c2.05,0,3.69-1.64,3.69-3.69v-37.33c0-2.05-1.64-3.69-3.69-3.69ZM1414.05,337.28h18.87c2.05,0,3.69,1.64,3.69,3.69v31.25l44.71,25.82v-101.78c0-2.05-1.64-3.69-3.69-3.69h-63.58c-2.05,0-3.69,1.64-3.69,3.69v37.33c0,2.05,1.64,3.69,3.69,3.69ZM607.71,379.98l-53.56-85.77c-.82-.82-2.05-1.64-3.28-1.64h-48c-2.05,0-3.69,1.64-3.69,3.69v37.33c0,2.05,1.64,3.69,3.69,3.69h23.38c1.23,0,2.46.82,2.87,1.64l59.07,93.53c.41.41.41,1.23.41,2.05v100.5c0,2.05,1.64,3.69,3.69,3.69h37.33c2.05,0,3.69-1.64,3.69-3.69v-100.5c0-.82.41-1.64.82-2.05l.32-.51-26.76-51.97ZM715.78,292.57h-43.89c-1.23,0-2.46.82-3.28,1.64l-42.45,66.98,23.82,46.26,69.09-109.14c1.64-2.46,0-5.74-3.28-5.74ZM1189.66,534.03l-100.91-238.75c-.41-1.23-1.64-2.05-3.28-2.05h-92.3c-2.05,0-3.69,1.64-3.69,3.69v37.33c0,2.05,1.64,3.69,3.69,3.69h9.03c3.28,0,4.51,2.46,3.69,5.33l-80.4,190.75c-1.23,2.87.82,5.33,3.28,5.33h40.61c1.64,0,2.87-.82,3.28-2.05l4.23-10.22h0s.09-.21.09-.21l77.72-183.19c1.23-2.46,4.1-2.46,4.92,0l44.3,102.55c.41,1.64-.41,3.69-2.46,3.69h-63.74l-19.46,44.71h103.3c1.64,0,2.87.82,3.28,2.05l17.23,40.61c.41,1.23,2.05,2.05,3.28,2.05h40.61c2.87,0,4.1-2.46,3.69-5.33ZM896.2,342.13h-41.27l-24.63-44.71h41.27l24.63,44.71ZM915.89,404.56h-108.47v-63.58c0-2.05,1.64-3.69,3.69-3.69h20.49l-24.63-44.71h-66.83c-2.05,0-3.69,1.64-3.69,3.69v37.33c0,2.05,1.64,3.69,3.69,3.69h18.46c2.05,0,4.1,1.64,4.1,3.69v194.03c0,2.05,1.64,3.69,3.69,3.69h37.33c2.05,0,3.69-1.64,3.69-3.69v-85.74h108.47c2.05,0,3.69-1.64,3.69-3.69v-37.33c0-2.05-1.64-3.69-3.69-3.69ZM945.25,292.57h-54.74l24.63,44.71h30.12c2.05,0,3.69-1.64,3.69-3.69v-37.33c0-2.05-1.64-3.69-3.69-3.69ZM29.53,464.45v-7.79c0-2.05,1.64-3.69,3.69-3.69h37.33c2.05,0,3.69,1.64,3.69,3.69v7.79c0,7.56,1.45,14.81,5.86,20.89l-30.34,33.45c-12.86-12.33-20.24-30.01-20.24-54.34ZM93.59,539.53l34.26-37.77c-14.08-.21-24.63-2.11-32.47-5.24l-30.2,33.3c8.32,4.43,17.87,7.6,28.41,9.71ZM132.08,389.79c-47.59-8.2-54.15-16.41-54.15-30.36,0-25.02,27.48-29.95,52.51-29.95s52.51,4.92,52.51,29.95v7.38c0,2.05,1.64,4.1,3.69,4.1h37.33c2.05,0,3.69-2.05,3.69-4.1v-7.38c0-54.15-43.48-70.97-97.22-70.97s-97.22,16.82-97.22,71.38,46.76,66.04,95.58,74.25c48.41,8.2,57.84,11.49,57.84,30.36,0,15.51-6.11,29.74-31.35,35.09l-38.86,42.85c4.55.28,9.23.41,14.02.41,58.25,0,100.91-20.1,100.91-78.35s-57.02-67.69-99.27-74.66Z"/>
</svg>