<?xml version="1.0" encoding="UTF-8"?>
<svg id="Camada_5" data-name="Camada 5" xmlns="http://www.w3.org/2000/svg" viewBox="0 0 1144.15 890.2">
  <defs>
    <style>
      .cls-1 {
        fill: #010101;
      }

      .cls-1, .cls-2 {
        stroke-width: 0px;
      }

      .cls-2 {
        fill: #fff;
      }
    </style>
  </defs>
  <path class="cls-1" d="M1063.25,596.3h-8.78l31.55-31.2,58.13-154.57-188.5-118.3-36.91-135.36-136.77-44.72c2.33-6.88,1.79-14.5-1.72-21.07-4.66-8.71-13.77-14.12-23.77-14.12h-43.76c-7.2,0-14.13,2.97-19.53,8.37l-1.8,1.8-1.36,2.15-37.9,59.8-27.4-43.88,40.53-65.58L609.77,0l-143.67,67.38-24.18,35.13-15.14,15.2h-36.77v-10.05c0-14.71-11.97-26.68-26.68-26.68h-63.38c-13.27,0-24.3,9.73-26.34,22.44-4.94-4.93-10.13-8.84-15.06-11.92-19.8-12.35-46.96-18.62-80.72-18.62s-60.97,6.29-80.76,18.69c-17.86,11.2-39.15,33.38-39.15,75.46,0,16.51,3.77,31.31,11.21,43.97,3.54,6.03,7.94,11.58,13.13,16.63L0,279.75v145.65l79.35,127.86,110.04,20.13v86.81c0,14.71,11.97,26.68,26.68,26.68h37.21c4.63,0,8.99-1.19,12.8-3.28l288.58,143.85-14.71-47.07,39.74-.06,37.72,109.88,71.45-28.4,90.81-119.09.06.06v-.06h126.68l56.46-55.83h100.38c14.71,0,26.68-11.97,26.68-26.68v-37.21c0-14.71-11.97-26.68-26.68-26.68ZM599.85,235.86l-39.51,55.65,71.14,154.26v13.64c0,8.99,4.47,16.95,11.31,21.79l-18.94,62.76-18.56-43.92,6.72-17.89-55.33-130.94c.38-1.79.58-3.65.58-5.55v-37.21c0-14.71-11.97-26.68-26.68-26.68h-3.25l-4.76-11.27,49.04-79.34,28.24,44.71ZM63.81,587.46l18-17.09,90.99,19.4-.99,52.6-67.05,1.9-40.95-56.81ZM858.84,811.15l33.91-48.08-100.58.8-33.29,40.68,49.49,24.16,50.48-17.55ZM745.78,820.13l-35.78,44.75,50.2,11.45,39.08-30.22-53.5-25.98Z"/>
  <path class="cls-2" d="M481.96,748.56v-52.15c0-.53-.42-.95-.95-.95h-5.06c-.53,0-.95-.53-.95-1.05v-6.95c0-.63.42-1.05.95-1.05h35.61c11.27,0,20.65,9.17,20.65,20.55,0,9.9-7.06,18.12-16.12,20.12-.53.11-.74.74-.42,1.16l10.75,12.01c.11.21.42.32.74.32h5.06c.53,0,.95.53.95,1.05v6.95c0,.63-.42,1.05-.95,1.05h-9.17c-.21,0-.53-.11-.74-.32l-18.96-21.39c-.21-.21-.53-.42-.84-.42h-10.43c-.63,0-1.05.53-1.05,1.05v20.02c0,.63-.42,1.05-.95,1.05h-7.06c-.53,0-1.05-.42-1.05-1.05ZM511.57,718.54c6.32,0,11.59-5.16,11.59-11.59s-5.27-11.48-11.59-11.48h-19.49c-.63,0-1.05.42-1.05.95v21.07c0,.53.42,1.05,1.05,1.05h19.49ZM542.89,748.56v-52.15c0-.53-.42-.95-1.05-.95h-4.95c-.53,0-1.05-.53-1.05-1.05v-6.95c0-.63.53-1.05,1.05-1.05h36.45c12.54,0,22.76,10.33,22.76,22.97s-10.33,22.23-22.65,22.23h-20.55c-.53,0-.95.42-.95.95v16.01c0,.63-.53,1.05-1.05,1.05h-7.06c-.53,0-.95-.42-.95-1.05ZM573.44,722.54c7.48,0,13.59-6.11,13.59-13.59s-6.01-13.49-13.59-13.49h-20.55c-.53,0-.95.42-.95.95v25.08c0,.63.42,1.05.95,1.05h20.55ZM633.21,750.67c-18.12,0-32.66-14.75-32.66-32.66s14.86-32.66,32.66-32.66c8.96,0,17.49,3.58,23.71,10.11l.32.42c.42.42.42,1.05,0,1.37l-5.06,4.85c-.42.42-1.05.42-1.48,0l-.32-.32c-4.53-4.74-10.64-7.38-17.17-7.38-13.07,0-23.6,10.54-23.6,23.6s10.54,23.6,23.6,23.6c6.22,0,11.91-2.32,16.33-6.53.21-.11.32-.42.32-.63v-10.96c0-.53-.42-.95-1.05-.95h-13.07c-.53,0-.95-.42-.95-1.05v-6.95c0-.63.42-1.05.95-1.05h22.13c.53,0,1.05.42,1.05,1.05v34.14c0,.53-.53.95-1.05.95h-7.06c-.53,0-.95-.42-.95-.95v-1.69c0-.32-.42-.63-.74-.42-4.85,2.74-10.22,4.11-15.91,4.11Z"/>
  <g>
    <path class="cls-2" d="M421.86,218.35l81.47,81.47c.82.81,1.63,1.22,2.44,1.22h22.81c2.04,0,3.67,1.63,3.67,3.67v37.07c0,2.04-1.63,3.67-3.67,3.67h-41.14c-.82,0-2.04-.41-2.44-1.22l-94.51-94.51c-1.63-1.22-3.67-1.22-5.3,0l-18.33,18.74c-.81.81-1.22,1.63-1.22,2.44v70.88c0,2.04-1.63,3.67-3.67,3.67h-37.07c-2.44,0-3.67-1.63-3.67-3.67v-192.68c0-2.04-1.63-3.67-3.67-3.67h-18.74c-2.04,0-3.67-1.63-3.67-3.67v-37.07c0-2.04,1.63-3.67,3.67-3.67h63.14c2.04,0,3.67,1.63,3.67,3.67v97.36c0,2.04,1.63,2.85,3.26,1.63l101.02-101.43c.81-.82,2.04-1.22,2.85-1.22h57.03c1.22,0,2.04,2.04.81,3.26l-108.76,108.76c-1.63,1.63-1.63,4.07,0,5.3ZM755.6,101.04h-43.59c-1.22,0-2.44.81-3.26,1.63l-42.77,67.48.96,2.25,21.22,46.01,70.7-111.68c1.63-2.44,0-5.7-3.26-5.7ZM650.03,190.12c-.28-.19-.54-.4-.75-.69l-54.18-86.77c-.81-.81-2.04-1.63-3.26-1.63h-47.66c-2.04,0-3.67,1.63-3.67,3.67v37.07c0,2.04,1.63,3.67,3.67,3.67h23.22c1.22,0,2.44.82,2.85,1.63l58.66,92.88c.41.41.41,1.22.41,2.04v99.8c0,2.04,1.63,3.67,3.67,3.67h37.07c2.04,0,3.67-1.63,3.67-3.67v-99.8c0-.13.03-.26.05-.39l-23.74-51.46ZM78.97,271.35v-7.79c0-2.05,1.64-3.69,3.69-3.69h37.33c2.05,0,3.69,1.64,3.69,3.69v7.79c0,7.56,1.45,14.81,5.86,20.89l-30.34,33.45c-12.86-12.33-20.24-30.01-20.24-54.34ZM143.03,346.44l34.26-37.77c-14.08-.21-24.63-2.11-32.47-5.24l-30.2,33.3c8.32,4.43,17.87,7.6,28.41,9.71ZM181.52,196.69c-47.59-8.2-54.15-16.41-54.15-30.36,0-25.02,27.48-29.95,52.51-29.95s52.51,4.92,52.51,29.95v7.38c0,2.05,1.64,4.1,3.69,4.1h37.33c2.05,0,3.69-2.05,3.69-4.1v-7.38c0-54.15-43.48-70.97-97.22-70.97s-97.22,16.82-97.22,71.38,46.76,66.04,95.58,74.25c48.41,8.2,57.84,11.49,57.84,30.36,0,15.51-6.11,29.74-31.35,35.09l-38.86,42.85c4.55.28,9.23.41,14.02.41,58.25,0,100.91-20.1,100.91-78.35s-57.02-67.69-99.27-74.66Z"/>
    <path class="cls-2" d="M383.62,657.7l79.84-189.42c.82-2.85-.41-5.3-3.67-5.3h-8.96c-2.04,0-3.67-1.63-3.67-3.67v-37.07c0-2.04,1.63-3.67,3.67-3.67h91.66c1.63,0,2.85.81,3.26,2.04l100.21,237.08c.41,2.85-.81,5.3-3.67,5.3h-40.33c-1.22,0-2.85-.81-3.26-2.04l-17.11-40.33c-.41-1.22-1.63-2.04-3.26-2.04h-127.5c-1.63,0-2.85.81-3.67,2.04l-16.7,40.33c-.41,1.22-1.63,2.04-3.26,2.04h-40.33c-2.44,0-4.48-2.44-3.26-5.3ZM558.37,574.19c2.04,0,2.85-2.04,2.44-3.67l-44-101.84c-.81-2.44-3.67-2.44-4.89,0l-43.59,101.84c-.41,1.63.81,3.67,2.85,3.67h87.17ZM723.84,618.59h125.87c2.04,0,3.67,1.63,3.67,3.67v37.07c0,2.04-1.63,3.67-3.67,3.67h-170.27c-2.44,0-3.67-1.63-3.67-3.67v-192.68c0-2.04-1.63-3.67-3.67-3.67h-18.74c-2.04,0-3.67-1.63-3.67-3.67v-37.07c0-2.04,1.63-3.67,3.67-3.67h63.14c2.04,0,3.67,1.63,3.67,3.67v192.68c0,2.04,1.63,3.67,3.67,3.67ZM887.72,552.76l44.71,25.82v-32l-44.71-25.82v32ZM1054.3,617.95h-126.76c-2.05,0-3.69-1.64-3.69-3.69v-20.36l-44.71-25.82v90.89c0,2.05,1.23,3.69,3.69,3.69h171.47c2.05,0,3.69-1.64,3.69-3.69v-37.33c0-2.05-1.64-3.69-3.69-3.69ZM856.58,461.25h18.87c2.05,0,3.69,1.64,3.69,3.69v31.25l44.71,25.82v-101.78c0-2.05-1.64-3.69-3.69-3.69h-63.58c-2.05,0-3.69,1.64-3.69,3.69v37.33c0,2.05,1.64,3.69,3.69,3.69ZM345.13,468.74h-41.27l-24.63-44.71h41.27l24.63,44.71ZM364.82,531.17h-108.47v-63.58c0-2.05,1.64-3.69,3.69-3.69h20.49l-24.63-44.71h-66.83c-2.05,0-3.69,1.64-3.69,3.69v37.33c0,2.05,1.64,3.69,3.69,3.69h18.46c2.05,0,4.1,1.64,4.1,3.69v194.03c0,2.05,1.64,3.69,3.69,3.69h37.33c2.05,0,3.69-1.64,3.69-3.69v-85.74h108.47c2.05,0,3.69-1.64,3.69-3.69v-37.33c0-2.05-1.64-3.69-3.69-3.69ZM394.18,419.18h-54.74l24.63,44.71h30.12c2.05,0,3.69-1.64,3.69-3.69v-37.33c0-2.05-1.64-3.69-3.69-3.69Z"/>
  </g>
</svg>