<?xml version="1.0" encoding="UTF-8"?>
<svg id="Camada_2" data-name="Camada 2" xmlns="http://www.w3.org/2000/svg" version="1.1" viewBox="0 0 1080.5 1020.4">
  <defs>
    <style>
      .cls-1 {
        fill: #010101;
      }

      .cls-1, .cls-2 {
        stroke-width: 0px;
      }

      .cls-2 {
        fill: #fff;
      }
    </style>
  </defs>
  <path class="cls-1" d="M142.9,803l74.3,7.9-32.1-54.3-63.4-30.3,21.2,76.7h0ZM751.1,945.1l25.8-41.8-89.5.8-37.1,40.4,53.3,24.4,47.6-23.8h0ZM633.7,959.6l-45.6,47.6,55,13.2,44-34.8-53.5-26h0ZM943.3,366.7l-21.4-26.9h31.3c0,0,0,0,0,0h0c20.4,0,37-16.6,37-36.9l.2-71.1c0-9.9-3.8-19.2-10.8-26.2-7-7-16.3-10.9-26.2-10.9l-270.8-.7-50.5-63.4-27.7-43.5,27.6-42.2L569.3,0l-262,106.4-165.5,6.4L-7.8,374l126.8,323.7,90.3,45,36,54,203.1,127.2,65.8,40.2,43.4,32.8,106.5-115.6h126.7l237.6-229.7,44.3-205.6-129.5-79.3h0Z"/>
  <path class="cls-2" d="M401.5,840v-85.1c0-.9-.7-1.5-1.5-1.5h-8.3c-.9,0-1.5-.9-1.5-1.7v-11.3c0-1,.7-1.7,1.5-1.7h58.1c18.4,0,33.7,15,33.7,33.5s-11.5,29.6-26.3,32.8c-.9.2-1.2,1.2-.7,1.9l17.5,19.6c.2.3.7.5,1.2.5h8.3c.9,0,1.5.9,1.5,1.7v11.3c0,1-.7,1.7-1.5,1.7h-15c-.3,0-.9-.2-1.2-.5l-31-34.9c-.3-.3-.9-.7-1.4-.7h-17c-1,0-1.7.9-1.7,1.7v32.7c0,1-.7,1.7-1.5,1.7h-11.5c-.9,0-1.7-.7-1.7-1.7h0ZM449.8,791c10.3,0,18.9-8.4,18.9-18.9s-8.6-18.8-18.9-18.8h-31.8c-1,0-1.7.7-1.7,1.5v34.4c0,.9.7,1.7,1.7,1.7h31.8ZM501,840v-85.1c0-.9-.7-1.5-1.7-1.5h-8.1c-.9,0-1.7-.9-1.7-1.7v-11.3c0-1,.9-1.7,1.7-1.7h59.5c20.5,0,37.2,16.9,37.2,37.5s-16.9,36.3-37,36.3h-33.5c-.9,0-1.5.7-1.5,1.5v26.1c0,1-.9,1.7-1.7,1.7h-11.5c-.9,0-1.5-.7-1.5-1.7h0ZM550.8,797.5c12.2,0,22.2-10,22.2-22.2s-9.8-22-22.2-22h-33.5c-.9,0-1.5.7-1.5,1.5v40.9c0,1,.7,1.7,1.5,1.7h33.5ZM648.4,843.4c-29.6,0-53.3-24.1-53.3-53.3s24.2-53.3,53.3-53.3,28.5,5.8,38.7,16.5l.5.7c.7.7.7,1.7,0,2.2l-8.3,7.9c-.7.7-1.7.7-2.4,0l-.5-.5c-7.4-7.7-17.4-12-28-12-21.3,0-38.5,17.2-38.5,38.5s17.2,38.5,38.5,38.5,19.4-3.8,26.7-10.7c.3-.2.5-.7.5-1v-17.9c0-.9-.7-1.5-1.7-1.5h-21.3c-.9,0-1.5-.7-1.5-1.7v-11.3c0-1,.7-1.7,1.5-1.7h36.1c.9,0,1.7.7,1.7,1.7v55.7c0,.9-.9,1.5-1.7,1.5h-11.5c-.9,0-1.5-.7-1.5-1.5v-2.8c0-.5-.7-1-1.2-.7-7.9,4.5-16.7,6.7-26,6.7h0Z"/>
  <path class="cls-2" d="M847.9,319.9h-78.7l-46.9-85.2h78.7l46.9,85.2ZM885.4,438.8h-206.7v-121.2c0-3.9,3.1-7,7-7h39l-46.9-85.2h-127.3c-3.9,0-7,3.1-7,7v71.1c0,3.9,3.1,7,7,7h35.2c3.9,0,7.8,3.1,7.8,7v369.7c0,3.9,3.1,7,7,7h71.1c3.9,0,7-3.1,7-7v-163.4h206.7c3.9,0,7-3.1,7-7v-71.1c0-3.9-3.1-7-7-7h0ZM941.3,225.4h-104.3l46.9,85.2h57.4c3.9,0,7-3.1,7-7v-71.1c0-3.9-3.1-7-7-7h0ZM169.5,593.6l56-61.7c-8.1-11.2-10.8-24.6-10.8-38.5v-14.4c0-3.8-3-6.8-6.8-6.8h-68.9c-3.8,0-6.8,3-6.8,6.8v14.4c0,44.9,13.6,77.5,37.3,100.3h0ZM250.4,631.9l63.2-69.7c-26-.4-45.4-3.9-59.9-9.7l-55.7,61.5c15.4,8.2,33,14,52.4,17.9h0ZM321.4,355.6c-87.8-15.1-99.9-30.3-99.9-56,0-46.2,50.7-55.3,96.9-55.3s96.9,9.1,96.9,55.3v13.6c0,3.8,3,7.6,6.8,7.6h68.9c3.8,0,6.8-3.8,6.8-7.6v-13.6c0-99.9-80.2-131-179.4-131s-179.4,31-179.4,131.7,86.3,121.9,176.4,137c89.3,15.1,106.7,21.2,106.7,56s-11.3,54.9-57.9,64.7l-71.7,79.1c8.4.5,17,.8,25.9.8,107.5,0,186.2-37.1,186.2-144.6s-105.2-124.9-183.2-137.8h0Z"/>
</svg>