<svg width="60" height="40" viewBox="0 0 60 40" fill="none" xmlns="http://www.w3.org/2000/svg">
<path d="M6.87207 25.0818L9.09401 22.0551H10.8358L12.6335 23.5741L12.0975 26.1395L9.75278 28.2098L7.65366 27.7147L6.87207 26.387V25.0818Z" fill="#424F66" fill-opacity="0.4"/>
<path d="M15.8827 22.7077L10.7913 29.6839V31.4279L12.6336 32.7106H14.0963L16.5415 29.1663L18.8863 25.8695L19.1431 24.4292L18.3615 23.1128L17.1668 22.7077H15.8827Z" fill="#424F66" fill-opacity="0.4"/>
<path d="M19.9358 27.3209L15.3579 33.5094L16.9323 36.1424L19.143 35.8723L22.9393 30.3477V28.4686L21.499 27.3209H19.9358Z" fill="#424F66" fill-opacity="0.4"/>
<path d="M24.0334 31.7317L20.8401 35.7486V37.6164L23.3188 39.0342L24.6252 38.3815C24.6252 38.3815 27.104 34.961 27.104 34.6909C27.104 34.4209 26.4899 32.7106 26.4899 32.7106L25.2281 31.7317H24.0223H24.0334Z" fill="#424F66" fill-opacity="0.4"/>
<path d="M10.0097 0.732788L0.340332 13.0986L6.87218 21.7513L9.75289 20.4798L12.0977 21.0086L13.404 22.7189H13.9288L16.5415 21.1437L18.7635 21.5375L20.5946 23.6416V25.8582L22.5486 26.2745L24.7705 28.7724L24.3797 30.2239L27.1265 31.1016L28.0532 32.7106L28.7008 34.5671L27.7182 36.1424L27.1265 37.1438L31.0456 37.8527L34.3059 38.2465L36.9187 36.6712L35.6123 35.6136L33.3903 34.8259C33.3903 34.8259 31.1684 33.6445 31.0344 33.5095C30.9004 33.3744 29.929 32.238 29.929 32.238L31.0344 31.2703L34.5627 33.3744L38.1134 35.3773L40.7038 34.8147L41.7868 32.6993L33.4462 27.7035L33.3903 26.387H34.3059L42.6689 31.3941L44.7569 31.0003L46.0632 29.6838V28.1986L35.9807 22.0438L36.0477 20.9299H36.6507L48.0507 27.3097L49.7144 26.9159L50.7639 24.8118L49.0668 22.4376L31.6932 10.7244L28.8236 9.40798L25.8201 10.5894L24.6477 12.0409L22.6938 13.7512L20.215 15.2027H17.3455L15.6483 13.7512L16.4299 10.3306L19.8242 5.72862L15.7711 5.07601L10.0209 0.732788H10.0097Z" fill="#424F66" fill-opacity="0.4"/>
<path d="M23.5422 3.62449L17.5798 11.6583V13.6161H20.1367L24.3685 10.8707L25.3399 8.63157L29.9289 7.87769L50.3507 22.055L59.5065 15.8665L50.7527 2.97188L42.01 4.41212L35.3442 2.57806H29.1362L23.5422 3.62449Z" fill="#424F66" fill-opacity="0.4"/>
</svg>
