<svg width="48" height="50" viewBox="0 0 48 50" fill="none" xmlns="http://www.w3.org/2000/svg">
<g clip-path="url(#clip0_280_465)">
<path d="M32.3501 7.57001L24.3601 15.75L30.4801 18.6L46.2001 2.78001L41.9401 0.0100098H38.9501L32.3501 7.57001Z" fill="#424F66" fill-opacity="0.4"/>
<path d="M45.6901 5.44L47.3801 8.53V12.2L33.9301 23.98L31.3601 19.19L45.6901 5.44Z" fill="#424F66" fill-opacity="0.4"/>
<path d="M22.92 15.83L18.76 20.52L24.36 23.34L29.21 30.32L33.89 26.17L29.16 19.19L22.92 15.83Z" fill="#424F66" fill-opacity="0.4"/>
<path d="M31.3601 28.41V39.75L28.7801 37.57L26.3301 44.16V32.41L28.8501 29.81L31.3601 28.41Z" fill="#424F66" fill-opacity="0.4"/>
<path d="M18.02 22.12L23.13 25.21L10.45 37.25L4.79997 36.29L0.969971 38.32V36.47L18.02 22.12Z" fill="#424F66" fill-opacity="0.4"/>
<path d="M6.83006 37.68L11.2001 39.28L24.3601 25.91L27.4401 30.32L12.0501 47.46L9.17006 41.19L6.83006 39.99L5.66006 40.98L7.47006 43.01L8.85006 42.37L9.71006 44.18L7.68006 45.35L4.06006 40.23L6.83006 37.68Z" fill="#424F66" fill-opacity="0.4"/>
<path d="M1.07007 39.7L2.67007 39.06L4.48007 45.35L6.72007 46.73L9.57007 47.46H10.9201V48.87L7.79007 49.72L4.04007 47.13L1.98007 43.59L1.07007 39.7Z" fill="#424F66" fill-opacity="0.4"/>
</g>
<defs>
<clipPath id="clip0_280_465">
<rect width="48" height="50" fill="white"/>
</clipPath>
</defs>
</svg>
