<svg width="47" height="50" viewBox="0 0 47 50" fill="none" xmlns="http://www.w3.org/2000/svg">
<g clip-path="url(#clip0_280_491)">
<path d="M40.3831 18.9167L32.3839 11.7037L23.6751 6.42593L17.0398 3.23148L9.27097 1.22222L3.46509 0.25L5.81509 3.36111L7.87019 6.07407L10.469 6.50926L16.3394 7.5463L20.7169 10.3241L21.6016 12.787L20.7998 14.8241L23.3894 15.3704L25.4169 18.2037L26.4398 17.0556L29.5178 16.5833L38.2082 21.2963L46.3733 27.1852L40.3831 18.9167Z" fill="#424F66" fill-opacity="0.4"/>
<path d="M17.6296 19.9445L0.0368652 46.0278L4.68157 49.5741L21.7675 23.2315L20.0349 20.5278L17.6296 19.9445Z" fill="#424F66" fill-opacity="0.4"/>
<path d="M20.2285 15.7963L23.113 16.6574L24.9377 19.176L22.4403 22.3611L20.9012 19.5556L18.1089 19.0741L20.2285 15.7963Z" fill="#424F66" fill-opacity="0.4"/>
</g>
<defs>
<clipPath id="clip0_280_491">
<rect width="47" height="50" fill="white"/>
</clipPath>
</defs>
</svg>
