<?xml version="1.0" encoding="UTF-8"?>
<svg xmlns="http://www.w3.org/2000/svg" xmlns:xlink="http://www.w3.org/1999/xlink" viewBox="0 0 596 348.96">
  <defs>
    <style>
      .cls-4 {
        fill: #222b54;
      }
    </style>
  </defs>
  <g class="cls-1">
    <polygon class="cls-4" points="8.1 83.11 33.14 134.39 34.89 146.1 33.14 152.18 29.6 191.31 35.2 191.31 38.32 196.73 87 203.37 168.65 214.11 187.41 210.93 197.32 215.69 268.7 214.26 294.85 210.6 321.66 214.26 362.43 213.79 369.49 209.05 390.92 213.79 414.08 239.02 423.68 235.05 430.23 239.02 481.49 239.45 482.67 260 505.39 316.55 495.75 347.02 567.47 328.03 587.53 31.84 534.87 31.81 527.27 37.21 519.63 31.81 477.95 7.21 336.45 70.55 326.63 76.59 292.58 73.73 238.66 81.05 155.53 81.05 147.6 77.87 142.13 81.05 8.1 83.11"/>
  </g>
</svg>