<?xml version="1.0" encoding="UTF-8"?>
<svg id="Camada_1" data-name="Camada 1" xmlns="http://www.w3.org/2000/svg" xmlns:xlink="http://www.w3.org/1999/xlink" viewBox="0 0 600 600">
  <defs>
    <style>
      .cls-1 {
        fill: none;
      }

      .cls-1, .cls-2 {
        stroke-width: 0px;
      }

      .cls-2 {
        fill: #00295b;
      }
    </style>
    <clipPath id="clippath">
      <polygon class="cls-1" points="-11.66 696.91 775.01 696.91 611.97 -98.78 -11.66 -98.78 -11.66 696.91"/>
    </clipPath>
  </defs>
  <polygon class="cls-2" points="-30.21 184.32 3.95 91.43 9.52 76.26 15.18 140.35 9.35 140.34 16.35 153.66 14.65 294.04 9.18 302.92 13.96 307.37 14.93 461.46 12.02 514.18 9.8 527.51 13.96 521.73 11.65 568.52 13.91 587.22 32.66 588.11 98.5 588.63 112.16 592.73 113.01 587.94 210.8 587.94 212.96 595.24 216.05 588.11 361.49 588.11 364.56 592.73 369.17 588.11 543.44 587.73 551.64 594.9 551.77 587.09 578.57 583.2 585.5 587.69 580.99 573.32 584.33 396.91 589.94 393.27 584.7 387.26 584.7 324.63 588.57 323.35 583.84 301.61 583.84 292.59 590.19 289 583.84 287.21 583.84 175.34 589.94 172.3 583.82 166.59 583.82 116.25 585.74 112.09 590.91 117.66 587.91 101.47 628.12 49.3 628.12 633.47 -30.21 631.43 -30.21 184.32"/>
  <path class="cls-2" d="M-30.21,139.54V-33.47h658.33V36.41l-44.51,62.08,3.25-19.66,3.84-4.49-4.1-17.17V15.26l3.59-7.18-9.48,6.15-10.76-5.13h-60.74l-10.25-4.1,4.1,4.61h-47.62l-1.79-4.61-6.4,4.61h-78.11c-.25,0-.49-.11-.64-.3l-1.67-2c-.34-.4-.95-.4-1.29,0l-1.66,2c-.16.19-.4.3-.64.3h-113.88l3.07-4.87-17.68,6.15h-117.94l-1.79-4.61-3.07,7.18-2.05-2.56-83.65,1.54-9.48-3.33,1.8,6.67-6.4-.26,1.54,48.19-43.91,75.84Z"/>
</svg>