<?xml version="1.0" encoding="UTF-8"?>
<svg id="Camada_1" data-name="Camada 1" xmlns="http://www.w3.org/2000/svg" viewBox="0 0 74.3 61.48">
  <defs>
    <style>
      .cls-1 {
        fill: #FFFFFF;
        stroke-width: 0px;
      }
    </style>
  </defs>
  <polyline class="cls-1" points="62.63 35.2 50.52 58.71 72.85 35.58 50.59 1.49"/>
  <g>
    <polygon class="cls-1" points="47.82 25.43 39.14 17.64 29.69 11.94 22.49 8.49 14.06 6.32 7.76 5.27 10.31 8.63 12.54 11.56 15.36 12.03 21.73 13.15 26.48 16.15 27.44 18.81 26.57 21.01 29.38 21.6 31.58 24.66 32.69 23.42 36.03 22.91 45.46 28 54.32 34.36 47.82 25.43"/>
    <polygon class="cls-1" points="23.13 26.54 4.04 54.71 9.08 58.54 27.62 30.09 25.74 27.17 23.13 26.54"/>
  </g>
  <polygon class="cls-1" points="25.95 22.06 29.08 22.99 31.06 25.71 28.35 29.15 26.68 26.12 23.65 25.6 25.95 22.06"/>
</svg>