<?xml version="1.0" encoding="UTF-8"?>
<svg id="Camada_1" data-name="Camada 1" xmlns="http://www.w3.org/2000/svg" viewBox="0 0 74.3 61.48">
  <defs>
    <style>
      .cls-1 {
        fill: #010101;
        stroke-width: 0px;
      }
    </style>
  </defs>
  <polyline class="cls-1" points="61.49 35.2 49.38 58.71 71.71 35.58 49.45 1.49"/>
  <polygon class="cls-1" points="34.35 17.57 26.36 25.75 32.48 28.6 48.2 12.78 43.94 10.01 40.95 10.01 34.35 17.57"/>
  <polygon class="cls-1" points="47.69 15.44 49.38 18.53 49.38 22.2 35.93 33.98 33.36 29.19 47.69 15.44"/>
  <polygon class="cls-1" points="24.92 25.83 20.76 30.52 26.36 33.34 31.21 40.32 35.89 36.17 31.16 29.19 24.92 25.83"/>
  <polygon class="cls-1" points="33.36 38.41 33.36 49.75 30.78 47.57 28.33 54.16 28.33 42.41 30.85 39.81 33.36 38.41"/>
  <polygon class="cls-1" points="20.02 32.12 25.13 35.21 12.45 47.25 6.8 46.29 2.97 48.32 2.97 46.47 20.02 32.12"/>
  <polygon class="cls-1" points="8.83 47.68 13.2 49.28 26.36 35.91 29.44 40.32 14.05 57.46 11.17 51.19 8.83 49.99 7.66 50.98 9.47 53.01 10.85 52.37 11.71 54.18 9.68 55.35 6.06 50.23 8.83 47.68"/>
  <polygon class="cls-1" points="3.07 49.7 4.67 49.06 6.48 55.35 8.72 56.73 11.57 57.46 12.92 57.46 12.92 58.87 9.79 59.72 6.04 57.13 3.98 53.59 3.07 49.7"/>
</svg>