<svg width="40" height="30" viewBox="0 0 40 30" fill="none" xmlns="http://www.w3.org/2000/svg">
<rect x="1" y="1" width="38" height="28" fill="#E8E9EE" stroke="#68718E" stroke-width="2"/>
<g clip-path="url(#clip0_132_837)">
<path fill-rule="evenodd" clip-rule="evenodd" d="M24.2012 6.03516C24.0001 6.03534 23.8034 6.09513 23.6362 6.20699C23.469 6.31884 23.3387 6.47775 23.2617 6.66363C23.1847 6.8495 23.1646 7.05402 23.2038 7.25135C23.243 7.44868 23.3398 7.62996 23.482 7.77231L24.6518 8.94352L22.4085 11.1869C20.0188 9.14726 16.9785 8.02952 13.8367 8.03559C12.8477 8.03543 11.8618 8.14559 10.8972 8.36402C10.6415 8.43081 10.4218 8.59444 10.2845 8.82029C10.1473 9.04615 10.1033 9.31652 10.1618 9.57424C10.2204 9.83196 10.3768 10.0568 10.5981 10.2012C10.8195 10.3457 11.0883 10.3984 11.3477 10.3482C11.7187 10.264 12.096 10.1989 12.4796 10.1527V20.4073H11.1225C10.9211 20.4073 10.7243 20.467 10.5569 20.5788C10.3895 20.6907 10.259 20.8497 10.182 21.0357V21.0384C10.1263 21.1724 10.1004 21.3168 10.106 21.4618C10.1151 21.7299 10.2297 21.9835 10.4249 22.1675L12.9003 24.643C13.0399 24.7918 13.2211 24.8952 13.4202 24.9398C13.6193 24.9844 13.8273 24.9681 14.017 24.8931C14.2068 24.818 14.3696 24.6877 14.4844 24.5189C14.5991 24.3502 14.6605 24.1508 14.6605 23.9467V22.6249H24.9517C24.9066 23.0053 24.8414 23.3832 24.7563 23.7567C24.7267 23.8871 24.7231 24.022 24.7457 24.1538C24.7682 24.2856 24.8165 24.4116 24.8878 24.5247C24.9591 24.6378 25.0519 24.7358 25.161 24.813C25.2701 24.8902 25.3934 24.9452 25.5238 24.9748C25.6542 25.0044 25.7891 25.008 25.9208 24.9854C26.0526 24.9629 26.1786 24.9146 26.2917 24.8433C26.4049 24.772 26.5028 24.6792 26.58 24.5701C26.6573 24.4609 26.7122 24.3377 26.7418 24.2073C26.9598 23.2427 27.0695 22.2567 27.0689 21.2677C27.0748 18.092 25.9324 15.0212 23.8525 12.6214L26.0917 10.3821L27.263 11.5533C27.4053 11.6955 27.5866 11.7923 27.7839 11.8315C27.9812 11.8707 28.1858 11.8505 28.3716 11.7736C28.5575 11.6966 28.7164 11.5663 28.8283 11.399C28.9401 11.2318 28.9999 11.0352 29.0001 10.834V7.05302C29.0006 6.9192 28.9747 6.7866 28.9237 6.66287C28.8728 6.53913 28.7978 6.42671 28.7032 6.33209C28.6086 6.23746 28.4961 6.16251 28.3724 6.11155C28.2487 6.06059 28.1161 6.03463 27.9822 6.03516H24.2012ZM20.9658 12.6309C19.1412 11.1196 16.8819 10.23 14.5167 10.0917V19.08L20.9658 12.6309ZM22.4112 14.0654C23.9603 15.902 24.8735 18.1906 25.0142 20.5892H15.886L22.4112 14.0654Z" fill="#182657"/>
</g>
<defs>
<clipPath id="clip0_132_837">
<rect width="19" height="19" fill="white" transform="translate(10 6)"/>
</clipPath>
</defs>
</svg>
